<svg width="314" height="485" viewBox="0 0 314 485" fill="none" xmlns="http://www.w3.org/2000/svg">
<g id="me">
<path id="Vector" d="M102.285 213.621L89.9221 219.428C89.9221 219.428 3.99858 318.659 0.456718 346.301C-3.08514 373.942 17.2806 389.145 17.2806 389.145L94.316 445.81L102.285 412.64L65.9811 383.617C65.9811 383.617 68.6375 375.324 58.0119 373.942C47.3864 372.56 45.6154 354.593 45.6154 354.593C45.6154 354.593 66.8666 303.456 78.3776 314.513C89.8887 325.57 93.4305 333.862 93.4305 333.862L102.285 213.621Z" fill="white"/>
<path id="Vector_2" d="M232.449 235.734C232.449 235.734 328.964 355.975 311.255 384.999C293.546 414.023 226.25 405.73 226.25 405.73L230.678 371.178L269.638 364.268L250.158 333.862L232.449 336.626V235.734Z" fill="white"/>
<path id="Vector_3" d="M89.8887 436.136L102.285 451.339C102.285 451.339 111.14 494.183 124.422 481.744C137.704 469.306 112.025 425.079 112.025 425.079L96.9724 416.787L89.8887 436.136Z" fill="#FFB8B8"/>
<path id="Vector_4" d="M214.768 190.993C224.59 190.993 232.552 178.565 232.552 163.234C232.552 147.903 224.59 135.475 214.768 135.475C204.945 135.475 196.983 147.903 196.983 163.234C196.983 178.565 204.945 190.993 214.768 190.993Z" fill="#2F2E41"/>
<path id="Vector_5" d="M233.334 378.089C233.334 378.089 193.045 366.341 190.389 387.072C187.733 407.803 235.105 398.82 235.105 398.82L233.334 378.089Z" fill="#FFB8B8"/>
<path id="Vector_6" d="M181.534 163.175C210.387 163.175 233.777 126.667 233.777 81.6321C233.777 36.5974 210.387 0.0894775 181.534 0.0894775C152.682 0.0894775 129.292 36.5974 129.292 81.6321C129.292 126.667 152.682 163.175 181.534 163.175Z" fill="#2F2E41"/>
<path id="Vector_7" d="M219.609 385.69C222.054 385.69 224.037 382.596 224.037 378.78C224.037 374.963 222.054 371.869 219.609 371.869C217.164 371.869 215.182 374.963 215.182 378.78C215.182 382.596 217.164 385.69 219.609 385.69Z" fill="#6C63FF"/>
<path id="Vector_8" d="M157.184 126.55C157.184 126.55 161.611 190.126 154.528 197.036C147.444 203.947 195.259 213.621 195.259 213.621C195.259 213.621 188.175 144.517 205.885 126.55H157.184Z" fill="#FFB8B8"/>
<path id="Vector_9" d="M114.654 465.456C115.201 461.734 115.568 459.629 115.568 459.629L115.284 456.601L112.367 425.681L111.141 412.639C121.764 405.729 124.422 373.939 124.422 373.939L124.823 373.566L126.635 371.872V371.865L133.144 365.771L133.276 365.649L135.905 368.379L141.246 373.939C159.932 395.387 178.96 395.005 190.702 391.627C197.88 389.56 202.342 386.379 202.342 386.379L215.222 379.675L215.623 379.469L216.019 379.561L223.573 381.345L223.71 381.383L224.336 381.528L222.586 400.405L220.05 427.84C226.749 433.377 232.706 443.78 237.915 456.601C239.068 459.439 240.186 462.39 241.267 465.456C242.674 469.422 244.018 473.549 245.298 477.774C245.455 478.277 245.606 478.788 245.758 479.299C246.251 480.954 246.74 482.625 247.214 484.303H112.308C112.484 482.617 112.66 481.008 112.831 479.46C112.84 479.407 112.847 479.353 112.851 479.299C112.914 478.781 112.973 478.277 113.027 477.774C113.623 472.74 114.199 468.538 114.654 465.456Z" fill="#2F2E41"/>
<path id="Vector_10" d="M199.686 185.98C199.686 185.98 212.871 176.369 193.882 179.792C174.893 183.215 158.51 170.086 158.51 170.086C158.51 170.086 152.757 161.102 151.871 170.777C150.986 180.451 154.528 198.418 135.047 201.182C115.567 203.947 97.8579 195.654 90.7742 216.385C83.6905 237.116 87.2323 326.952 87.2323 326.952C87.2323 326.952 100.514 401.584 111.14 412.64C121.765 423.697 214.739 408.494 214.739 408.494L241.303 333.862V246.791C241.303 246.791 237.761 216.385 212.968 224.678C212.968 224.678 197.03 219.149 197.915 206.711C198.801 194.272 199.686 185.98 199.686 185.98Z" fill="#EEEDF2"/>
<path id="Vector_11" d="M140.533 31.0389C149.534 15.2372 162.117 5.51257 175.626 3.91736C189.134 2.32215 202.511 8.98117 212.934 22.489C212.507 21.8552 212.084 21.2162 211.64 20.6002C201.284 6.23741 187.698 -1.1172 173.868 0.153892C160.039 1.42498 147.099 11.2177 137.894 27.3783C128.69 43.5389 123.975 64.7441 124.786 86.3302C125.597 107.916 131.868 128.116 142.22 142.486C142.664 143.102 143.12 143.682 143.573 144.27C133.758 129.696 127.954 109.74 127.387 88.6141C126.819 67.4877 131.533 46.8436 140.533 31.0389Z" fill="#2F2E41"/>
<path id="Vector_12" d="M147.001 106.51C148.468 106.51 149.658 103.107 149.658 98.9086C149.658 94.7105 148.468 91.3072 147.001 91.3072C145.534 91.3072 144.345 94.7105 144.345 98.9086C144.345 103.107 145.534 106.51 147.001 106.51Z" fill="#FFB8B8"/>
<path id="Vector_13" d="M181.092 162.484C199.675 162.484 214.739 138.971 214.739 109.965C214.739 80.9598 199.675 57.4463 181.092 57.4463C162.509 57.4463 147.444 80.9598 147.444 109.965C147.444 138.971 162.509 162.484 181.092 162.484Z" fill="#FFB8B8"/>
<path id="Vector_14" d="M152.314 44.3162V96.8353H160.106L170.023 80.2503L168.695 96.8353H203.139L201.014 80.2503L205.265 96.8353H210.755V44.3162H152.314Z" fill="#2F2E41"/>
<path id="Vector_15" d="M215.182 106.51C216.649 106.51 217.838 103.107 217.838 98.9086C217.838 94.7105 216.649 91.3072 215.182 91.3072C213.715 91.3072 212.526 94.7105 212.526 98.9086C212.526 103.107 213.715 106.51 215.182 106.51Z" fill="#FFB8B8"/>
<path id="Vector_16" d="M219.722 136.239C222.8 136.24 225.825 137.487 228.502 139.859C231.178 142.231 233.415 145.646 234.993 149.771C236.57 153.896 237.435 158.589 237.503 163.392C237.57 168.195 236.838 172.943 235.378 177.172C236.92 174.161 238.043 170.682 238.676 166.956C239.309 163.23 239.437 159.339 239.053 155.531C238.669 151.723 237.782 148.082 236.446 144.839C235.111 141.597 233.357 138.824 231.297 136.697C229.238 134.571 226.916 133.138 224.482 132.489C222.048 131.84 219.553 131.99 217.158 132.929C214.763 133.868 212.519 135.575 210.57 137.942C208.621 140.309 207.009 143.284 205.837 146.678C207.5 143.42 209.612 140.789 212.016 138.982C214.42 137.175 217.054 136.237 219.722 136.239Z" fill="#2F2E41"/>
<path id="Vector_17" d="M109.369 199.8C109.369 199.8 119.109 227.442 115.567 261.994C112.025 296.546 126.193 382.235 126.193 382.235L136.818 378.088C136.818 378.088 129.735 306.22 131.506 289.635C133.276 273.051 133.276 208.093 124.422 199.8C115.567 191.508 109.369 199.8 109.369 199.8Z" fill="#2F2E41"/>
<path id="Vector_18" d="M212.346 228.526L216.067 381.544L223.151 388.454C223.151 388.454 233.334 220.532 228.021 220.532H217.211C216.55 220.532 215.896 220.741 215.289 221.148C214.682 221.555 214.134 222.151 213.679 222.898C213.224 223.646 212.871 224.531 212.642 225.498C212.412 226.465 212.312 227.495 212.346 228.526Z" fill="#2F2E41"/>
</g>
</svg>
